# xmcd
#
# Track frame offsets: 
#        150
#        16748
#        33716
#        51301
#        69443
#        86827
#        109047
#        120455
#        136349
#        174256
#        195674
#        214981
#        249336
#        279928
#        308782
#        334146
#        353306
#
# Disc length: 4788 seconds
#
# Revision: 0
# Processed by: cddbd v1.5.1PL0 Copyright (c) Steve Scherf et al.
# Submitted via: ExactAudioCopy v0.90b4
#
DISCID=eb12b211
DTITLE=Tori Amos - To Venus and Back (Atlantic publishing)
DYEAR=1999
DGENRE=Alt. Rock
TTITLE0=Bliss
TTITLE1=Juarez 
TTITLE2=Concertina
TTITLE3=Glory of the 80's
TTITLE4=Lust
TTITLE5=Suede
TTITLE6=Josephine
TTITLE7=Riot Poof
TTITLE8=Datura
TTITLE9=Spring Haze
TTITLE10=1000 Oceans
TTITLE11=Preclous Things
TTITLE12=Cruel
TTITLE13=Cornflake Girl
TTITLE14=Bells For Her
TTITLE15=Girl 
TTITLE16=Mr. Zebra
EXTD=
EXTT0=
EXTT1=
EXTT2=
EXTT3=
EXTT4=
EXTT5=
EXTT6=
EXTT7=
EXTT8=
EXTT9=
EXTT10=
EXTT11=
EXTT12=
EXTT13=
EXTT14=
EXTT15=
EXTT16=
PLAYORDER=
